<?xml version="1.0" encoding="UTF-8"?>
<svg id="Layer_2" data-name="Layer 2" xmlns="http://www.w3.org/2000/svg" viewBox="0 0 169.218 120.175">
  <g id="Layer_1-2" data-name="Layer 1">
    <g>
      <g>
        <rect x="53.37" width="38.309" height="16.032" rx="2" ry="2" fill="#ebbf56"/>
        <rect x="95.314" width="20.537" height="16.032" rx="2" ry="2" fill="#769353"/>
        <rect x="73.055" y="20.299" width="42.796" height="16.032" rx="2" ry="2" fill="#d6cdbe"/>
        <rect x="43.221" y="30.448" width="36.331" height="16.032" rx="2" ry="2" transform="translate(99.85 -22.922) rotate(90)" fill="#3e655d"/>
        <rect x="73.055" y="40.597" width="42.796" height="16.032" rx="2" ry="2" fill="#d08a64"/>
      </g>
      <g>
        <path d="M1.447,79.039c0-.24.081-.433.244-.577.163-.144.364-.216.605-.216h19.464c.217,0,.409.066.578.198s.266.331.29.595v4.491c0,.217-.075.424-.227.623-.15.198-.364.297-.642.297h-6.241v19.806c0,.217-.078.414-.234.588-.156.175-.36.263-.613.263h-5.305c-.204,0-.396-.082-.577-.245-.181-.163-.271-.365-.271-.606v-19.806H2.297c-.241,0-.442-.078-.605-.234s-.244-.385-.244-.686v-4.491Z" fill="#34484d"/>
        <path d="M20.639,93.639c0-1.109.142-2.176.426-3.202.283-1.025.681-1.974,1.193-2.849s1.128-1.67,1.845-2.388c.718-.717,1.517-1.33,2.397-1.836.88-.507,1.829-.898,2.849-1.176,1.019-.277,2.083-.416,3.192-.416,1.64,0,3.181.305,4.622.913,1.44.609,2.695,1.447,3.762,2.515,1.067,1.067,1.912,2.321,2.533,3.762.621,1.441.932,3,.932,4.676,0,1.11-.143,2.174-.426,3.193s-.681,1.969-1.193,2.849c-.513.88-1.128,1.68-1.846,2.397-.717.718-1.517,1.333-2.396,1.845s-1.824.907-2.831,1.185-2.059.416-3.156.416c-1.109,0-2.174-.139-3.192-.416-1.02-.277-1.969-.672-2.849-1.185-.881-.513-1.68-1.127-2.397-1.845-.717-.717-1.332-1.517-1.845-2.397-.513-.88-.91-1.83-1.193-2.849-.284-1.019-.426-2.083-.426-3.193ZM27.241,93.639c0,.796.124,1.541.371,2.234.247.694.597,1.293,1.049,1.8.452.507,1.001.908,1.646,1.203.645.295,1.371.443,2.18.443.783,0,1.492-.148,2.125-.443s1.17-.696,1.61-1.203c.439-.506.777-1.106,1.013-1.8.235-.693.353-1.438.353-2.234,0-.771-.117-1.507-.353-2.207s-.573-1.314-1.013-1.845c-.44-.53-.978-.95-1.61-1.257-.633-.307-1.342-.461-2.125-.461-.809,0-1.535.154-2.18.461-.646.308-1.194.727-1.646,1.257-.452.531-.802,1.146-1.049,1.845s-.371,1.435-.371,2.207Z" fill="#34484d"/>
        <path d="M47.283,93.639c0-1.109.142-2.176.426-3.202.283-1.025.681-1.974,1.193-2.849s1.128-1.67,1.845-2.388c.718-.717,1.517-1.33,2.397-1.836.88-.507,1.829-.898,2.849-1.176,1.019-.277,2.083-.416,3.192-.416,1.64,0,3.181.305,4.622.913,1.44.609,2.695,1.447,3.762,2.515,1.067,1.067,1.912,2.321,2.533,3.762.621,1.441.932,3,.932,4.676,0,1.11-.143,2.174-.426,3.193s-.681,1.969-1.193,2.849c-.513.88-1.128,1.68-1.846,2.397-.717.718-1.517,1.333-2.396,1.845s-1.824.907-2.831,1.185-2.059.416-3.156.416c-1.109,0-2.174-.139-3.192-.416-1.02-.277-1.969-.672-2.849-1.185-.881-.513-1.68-1.127-2.397-1.845-.717-.717-1.332-1.517-1.845-2.397-.513-.88-.91-1.83-1.193-2.849-.284-1.019-.426-2.083-.426-3.193ZM53.886,93.639c0,.796.124,1.541.371,2.234.247.694.597,1.293,1.049,1.8.452.507,1.001.908,1.646,1.203.645.295,1.371.443,2.18.443.783,0,1.492-.148,2.125-.443s1.17-.696,1.61-1.203c.439-.506.777-1.106,1.013-1.8.235-.693.353-1.438.353-2.234,0-.771-.117-1.507-.353-2.207s-.573-1.314-1.013-1.845c-.44-.53-.978-.95-1.61-1.257-.633-.307-1.342-.461-2.125-.461-.809,0-1.535.154-2.18.461-.646.308-1.194.727-1.646,1.257-.452.531-.802,1.146-1.049,1.845s-.371,1.435-.371,2.207Z" fill="#34484d"/>
        <path d="M81.055,103.714c-.108.229-.198.431-.271.606-.072.175-.153.319-.244.434-.09.115-.202.202-.334.262-.133.061-.314.09-.543.09h-3.581c-.966,0-1.447-.464-1.447-1.393v-27.024c0-.205.039-.392.117-.561.078-.168.181-.313.308-.434.127-.12.271-.214.435-.28.162-.066.322-.1.479-.1h4.106c.458,0,.82.133,1.085.398.266.266.398.591.398.977v7.525c.337-.362.699-.693,1.085-.995.386-.301.806-.558,1.258-.769s.949-.377,1.492-.498c.542-.121,1.146-.181,1.809-.181,1.64,0,3.15.305,4.531.913,1.381.609,2.568,1.447,3.563,2.515.995,1.067,1.772,2.321,2.333,3.762.561,1.441.842,3,.842,4.676,0,1.664-.281,3.22-.842,4.667s-1.338,2.704-2.333,3.771-2.183,1.908-3.563,2.523c-1.381.615-2.892.922-4.531.922-.615,0-1.203-.079-1.764-.235s-1.089-.361-1.583-.615-.949-.54-1.365-.859c-.416-.319-.787-.642-1.112-.968l-.326.869ZM91.962,93.639c0-.771-.123-1.507-.37-2.207-.248-.699-.601-1.314-1.059-1.845-.458-.53-1.007-.95-1.646-1.257-.64-.307-1.357-.461-2.153-.461s-1.54.154-2.233.461c-.693.308-1.294.727-1.8,1.257-.507.531-.907,1.146-1.203,1.845s-.443,1.435-.443,2.207v.253c.036.76.208,1.471.516,2.134.308.664.715,1.239,1.221,1.728.507.488,1.098.872,1.773,1.148.675.278,1.398.417,2.17.417.796,0,1.514-.148,2.153-.443.639-.295,1.188-.696,1.646-1.203.458-.506.811-1.106,1.059-1.8.247-.693.37-1.438.37-2.234Z" fill="#34484d"/>
        <path d="M119.076,101.598c.218,0,.404.076.562.226.156.151.234.359.234.624v1.863c0,.217-.072.404-.217.561-.145.157-.338.235-.579.235h-15.375c-.53,0-.796-.265-.796-.796v-25.27c0-.217.072-.404.217-.561.146-.156.35-.235.615-.235h1.863c.229,0,.419.066.57.199.15.133.226.332.226.597v22.556h12.68Z" fill="#34484d"/>
        <path d="M127.145,77.956c0,.531-.266.796-.796.796h-1.863c-.567,0-.851-.265-.851-.796v-1.863c0-.241.078-.434.235-.579.156-.145.344-.217.561-.217h1.882c.253,0,.454.076.605.226.15.151.227.341.227.57v1.863ZM127.145,104.311c0,.531-.266.796-.796.796h-1.863c-.567,0-.851-.265-.851-.796v-21.381c0-.241.078-.434.235-.579.156-.145.344-.217.561-.217h1.882c.253,0,.454.079.605.235.15.157.227.344.227.561v21.381Z" fill="#34484d"/>
        <path d="M139.788,73.651c.277,0,.497.084.66.253.162.169.244.404.244.706v1.537c0,.242-.066.456-.199.643s-.332.28-.597.28c-.205,0-.452.045-.742.136-.289.09-.566.25-.832.479-.265.229-.491.534-.678.914-.188.38-.28.865-.28,1.456v3.781h2.424c.277,0,.497.072.66.217.162.145.244.392.244.742v1.14c0,.326-.082.582-.244.769-.163.188-.383.281-.66.281h-2.424v17.166c0,.313-.1.551-.299.714-.199.163-.419.244-.66.244h-1.683c-.301,0-.521-.09-.66-.271-.139-.181-.208-.41-.208-.687v-17.166h-1.718c-.278,0-.504-.093-.679-.281-.175-.187-.263-.443-.263-.769v-1.14c0-.35.088-.597.263-.742.175-.145.4-.217.679-.217h1.718v-3.817c0-.868.136-1.688.407-2.46.271-.771.66-1.447,1.167-2.026.506-.579,1.127-1.037,1.863-1.375.735-.337,1.567-.506,2.496-.506Z" fill="#34484d"/>
        <path d="M161.079,99.843c.108-.097.226-.187.353-.271.126-.084.256-.126.389-.126.181,0,.355.108.524.326.241.325.438.591.588.796s.274.368.371.488c.097.133.169.229.217.29.061.072.108.147.145.226s.055.166.055.262c0,.133-.052.274-.154.425-.103.151-.28.329-.533.534-.519.41-1.058.781-1.619,1.112-.561.332-1.148.618-1.764.859-.614.241-1.263.428-1.944.561-.682.132-1.401.199-2.161.199-1.074,0-2.11-.142-3.111-.425s-1.944-.687-2.831-1.212c-.887-.524-1.694-1.148-2.424-1.872s-1.359-1.525-1.891-2.406c-.53-.88-.94-1.824-1.229-2.831-.29-1.007-.435-2.053-.435-3.139s.136-2.134.407-3.147c.271-1.013.657-1.959,1.157-2.84.501-.88,1.106-1.682,1.818-2.406.711-.724,1.511-1.344,2.396-1.863.887-.519,1.846-.919,2.876-1.203,1.031-.283,2.119-.425,3.266-.425.904,0,1.803.103,2.695.307.892.206,1.748.504,2.568.896.819.392,1.589.877,2.306,1.456.718.579,1.36,1.242,1.927,1.99.771,1.037,1.345,2.219,1.719,3.545.373,1.327.548,2.852.524,4.576,0,.567-.266.851-.796.851h-19.065c.205.965.563,1.857,1.076,2.677.513.82,1.128,1.535,1.845,2.144.718.609,1.517,1.085,2.397,1.429.88.344,1.79.516,2.731.516.663,0,1.263-.063,1.8-.19.536-.127,1.024-.295,1.465-.507.44-.21.847-.452,1.221-.723.374-.271.735-.552,1.086-.841l.036-.036ZM151.166,86.458c-.916.615-1.706,1.39-2.369,2.325-.664.935-1.116,1.962-1.356,3.084h16.352c-.133-1.001-.443-1.911-.932-2.731-.488-.82-1.101-1.52-1.836-2.098-.735-.579-1.564-1.028-2.487-1.348-.922-.319-1.878-.479-2.867-.479-.783,0-1.559.103-2.324.308s-1.492.519-2.18.94Z" fill="#34484d"/>
      </g>
    </g>
  </g>
</svg>